<mxfile host="app.diagrams.net" modified="2023-12-01T06:45:38.920Z" agent="Mozilla/5.0 (Windows NT 10.0; Win64; x64) AppleWebKit/537.36 (KHTML, like Gecko) Chrome/119.0.0.0 Safari/537.36 Edg/119.0.0.0" etag="j9MRtQFvEwsxjELTiTdc" version="22.1.5" type="github">
  <diagram id="C5RBs43oDa-KdzZeNtuy" name="Page-1">
    <mxGraphModel dx="1498" dy="828" grid="1" gridSize="10" guides="1" tooltips="1" connect="1" arrows="1" fold="1" page="1" pageScale="1" pageWidth="827" pageHeight="1169" math="0" shadow="0">
      <root>
        <mxCell id="WIyWlLk6GJQsqaUBKTNV-0" />
        <mxCell id="WIyWlLk6GJQsqaUBKTNV-1" parent="WIyWlLk6GJQsqaUBKTNV-0" />
        <mxCell id="1fSLfxTVSvWsyb9XMO1A-0" value="&lt;font color=&quot;#f5f5f5&quot;&gt;Inicio&amp;nbsp;&lt;br&gt;mostrar información del estudiante (FILE*archivo&lt;/font&gt;)" style="ellipse;whiteSpace=wrap;html=1;fillColor=#11202B;rounded=0;labelBackgroundColor=none;strokeColor=#FFFFFF;fontColor=#FFFFFF;" vertex="1" parent="WIyWlLk6GJQsqaUBKTNV-1">
          <mxGeometry x="290" y="20" width="310" height="80" as="geometry" />
        </mxCell>
        <mxCell id="1fSLfxTVSvWsyb9XMO1A-1" value="" style="endArrow=classic;html=1;rounded=0;exitX=0.5;exitY=1;exitDx=0;exitDy=0;entryX=0.5;entryY=0;entryDx=0;entryDy=0;labelBackgroundColor=none;strokeColor=#04070A;fontColor=default;" edge="1" parent="WIyWlLk6GJQsqaUBKTNV-1" source="1fSLfxTVSvWsyb9XMO1A-0" target="1fSLfxTVSvWsyb9XMO1A-2">
          <mxGeometry width="50" height="50" relative="1" as="geometry">
            <mxPoint x="390" y="330" as="sourcePoint" />
            <mxPoint x="410" y="250" as="targetPoint" />
          </mxGeometry>
        </mxCell>
        <mxCell id="1fSLfxTVSvWsyb9XMO1A-2" value="&lt;font color=&quot;#ffffff&quot;&gt;struct Estudiante estudiante&lt;/font&gt;" style="rounded=0;whiteSpace=wrap;html=1;fillColor=#060B0F;labelBackgroundColor=none;strokeColor=#04070A;fontColor=#FFFFFF;" vertex="1" parent="WIyWlLk6GJQsqaUBKTNV-1">
          <mxGeometry x="355" y="130" width="180" height="60" as="geometry" />
        </mxCell>
        <mxCell id="1fSLfxTVSvWsyb9XMO1A-3" value="" style="endArrow=classic;html=1;rounded=0;exitX=0.5;exitY=1;exitDx=0;exitDy=0;entryX=0.5;entryY=0;entryDx=0;entryDy=0;labelBackgroundColor=none;strokeColor=#04070A;fontColor=default;" edge="1" parent="WIyWlLk6GJQsqaUBKTNV-1" source="1fSLfxTVSvWsyb9XMO1A-2" target="1fSLfxTVSvWsyb9XMO1A-4">
          <mxGeometry width="50" height="50" relative="1" as="geometry">
            <mxPoint x="420" y="270" as="sourcePoint" />
            <mxPoint x="445" y="260" as="targetPoint" />
          </mxGeometry>
        </mxCell>
        <mxCell id="1fSLfxTVSvWsyb9XMO1A-4" value="&lt;font color=&quot;#ffffff&quot;&gt;rewid(archivo&lt;/font&gt;" style="rounded=0;whiteSpace=wrap;html=1;fillColor=#060B0F;labelBackgroundColor=none;strokeColor=#04070A;fontColor=#FFFFFF;" vertex="1" parent="WIyWlLk6GJQsqaUBKTNV-1">
          <mxGeometry x="385" y="210" width="120" height="60" as="geometry" />
        </mxCell>
        <mxCell id="1fSLfxTVSvWsyb9XMO1A-5" value="" style="endArrow=classic;html=1;exitX=0.5;exitY=1;exitDx=0;exitDy=0;entryX=0.5;entryY=0;entryDx=0;entryDy=0;strokeColor=#04070A;" edge="1" parent="WIyWlLk6GJQsqaUBKTNV-1" source="1fSLfxTVSvWsyb9XMO1A-4" target="1fSLfxTVSvWsyb9XMO1A-7">
          <mxGeometry width="50" height="50" relative="1" as="geometry">
            <mxPoint x="400" y="400" as="sourcePoint" />
            <mxPoint x="450" y="350" as="targetPoint" />
          </mxGeometry>
        </mxCell>
        <mxCell id="1fSLfxTVSvWsyb9XMO1A-7" value="fread(&amp;amp;estudiante,siexof(struct Estudiante), 1, archivo ==1" style="rhombus;whiteSpace=wrap;html=1;fontColor=#FFFFFF;fillColor=#000000;fillStyle=solid;" vertex="1" parent="WIyWlLk6GJQsqaUBKTNV-1">
          <mxGeometry x="255" y="300" width="380" height="110" as="geometry" />
        </mxCell>
        <mxCell id="1fSLfxTVSvWsyb9XMO1A-28" value="" style="edgeStyle=orthogonalEdgeStyle;orthogonalLoop=1;jettySize=auto;html=1;" edge="1" parent="WIyWlLk6GJQsqaUBKTNV-1" source="1fSLfxTVSvWsyb9XMO1A-9" target="1fSLfxTVSvWsyb9XMO1A-7">
          <mxGeometry relative="1" as="geometry" />
        </mxCell>
        <mxCell id="1fSLfxTVSvWsyb9XMO1A-9" value="Numero de cuenta: \n" style="shape=document;whiteSpace=wrap;html=1;boundedLbl=1;fontColor=#FFFFFF;strokeColor=#121212;fillColor=#000000;" vertex="1" parent="WIyWlLk6GJQsqaUBKTNV-1">
          <mxGeometry x="365" y="450" width="160" height="80" as="geometry" />
        </mxCell>
        <mxCell id="1fSLfxTVSvWsyb9XMO1A-10" value="Nombre: \n" style="shape=document;whiteSpace=wrap;html=1;boundedLbl=1;fontColor=#FFFFFF;strokeColor=#121212;fillColor=#000000;" vertex="1" parent="WIyWlLk6GJQsqaUBKTNV-1">
          <mxGeometry x="365" y="550" width="160" height="80" as="geometry" />
        </mxCell>
        <mxCell id="1fSLfxTVSvWsyb9XMO1A-11" value="Calificaciones literatura: \n" style="shape=document;whiteSpace=wrap;html=1;boundedLbl=1;fontColor=#FFFFFF;strokeColor=#121212;fillColor=#000000;" vertex="1" parent="WIyWlLk6GJQsqaUBKTNV-1">
          <mxGeometry x="365" y="660" width="160" height="80" as="geometry" />
        </mxCell>
        <mxCell id="1fSLfxTVSvWsyb9XMO1A-12" value="Calificación quimica: \n" style="shape=document;whiteSpace=wrap;html=1;boundedLbl=1;fontColor=#FFFFFF;strokeColor=#121212;fillColor=#000000;" vertex="1" parent="WIyWlLk6GJQsqaUBKTNV-1">
          <mxGeometry x="365" y="760" width="160" height="80" as="geometry" />
        </mxCell>
        <mxCell id="1fSLfxTVSvWsyb9XMO1A-13" value="Calificación matematicas: \n" style="shape=document;whiteSpace=wrap;html=1;boundedLbl=1;fontColor=#FFFFFF;strokeColor=#121212;fillColor=#000000;" vertex="1" parent="WIyWlLk6GJQsqaUBKTNV-1">
          <mxGeometry x="365" y="860" width="160" height="80" as="geometry" />
        </mxCell>
        <mxCell id="1fSLfxTVSvWsyb9XMO1A-14" value="" style="endArrow=classic;html=1;exitX=0.5;exitY=1;exitDx=0;exitDy=0;entryX=0.5;entryY=0;entryDx=0;entryDy=0;" edge="1" parent="WIyWlLk6GJQsqaUBKTNV-1" source="1fSLfxTVSvWsyb9XMO1A-7" target="1fSLfxTVSvWsyb9XMO1A-9">
          <mxGeometry width="50" height="50" relative="1" as="geometry">
            <mxPoint x="440" y="580" as="sourcePoint" />
            <mxPoint x="440" y="610" as="targetPoint" />
          </mxGeometry>
        </mxCell>
        <mxCell id="1fSLfxTVSvWsyb9XMO1A-15" value="" style="endArrow=classic;html=1;exitX=0.496;exitY=0.863;exitDx=0;exitDy=0;exitPerimeter=0;entryX=0.5;entryY=0;entryDx=0;entryDy=0;" edge="1" parent="WIyWlLk6GJQsqaUBKTNV-1" source="1fSLfxTVSvWsyb9XMO1A-9" target="1fSLfxTVSvWsyb9XMO1A-10">
          <mxGeometry width="50" height="50" relative="1" as="geometry">
            <mxPoint x="450" y="540" as="sourcePoint" />
            <mxPoint x="450" y="601.76" as="targetPoint" />
          </mxGeometry>
        </mxCell>
        <mxCell id="1fSLfxTVSvWsyb9XMO1A-16" value="" style="endArrow=classic;html=1;entryX=0.5;entryY=0;entryDx=0;entryDy=0;exitX=0.506;exitY=0.896;exitDx=0;exitDy=0;exitPerimeter=0;" edge="1" parent="WIyWlLk6GJQsqaUBKTNV-1" source="1fSLfxTVSvWsyb9XMO1A-10" target="1fSLfxTVSvWsyb9XMO1A-11">
          <mxGeometry width="50" height="50" relative="1" as="geometry">
            <mxPoint x="450" y="660" as="sourcePoint" />
            <mxPoint x="440" y="700" as="targetPoint" />
          </mxGeometry>
        </mxCell>
        <mxCell id="1fSLfxTVSvWsyb9XMO1A-17" value="" style="endArrow=classic;html=1;entryX=0.5;entryY=0;entryDx=0;entryDy=0;exitX=0.481;exitY=0.875;exitDx=0;exitDy=0;exitPerimeter=0;" edge="1" parent="WIyWlLk6GJQsqaUBKTNV-1" source="1fSLfxTVSvWsyb9XMO1A-11" target="1fSLfxTVSvWsyb9XMO1A-12">
          <mxGeometry width="50" height="50" relative="1" as="geometry">
            <mxPoint x="440" y="740" as="sourcePoint" />
            <mxPoint x="440" y="880" as="targetPoint" />
          </mxGeometry>
        </mxCell>
        <mxCell id="1fSLfxTVSvWsyb9XMO1A-19" value="" style="endArrow=classic;html=1;entryX=0.5;entryY=0;entryDx=0;entryDy=0;exitX=0.496;exitY=0.825;exitDx=0;exitDy=0;exitPerimeter=0;" edge="1" parent="WIyWlLk6GJQsqaUBKTNV-1" source="1fSLfxTVSvWsyb9XMO1A-12" target="1fSLfxTVSvWsyb9XMO1A-13">
          <mxGeometry width="50" height="50" relative="1" as="geometry">
            <mxPoint x="670" y="940" as="sourcePoint" />
            <mxPoint x="440" y="700" as="targetPoint" />
          </mxGeometry>
        </mxCell>
        <mxCell id="1fSLfxTVSvWsyb9XMO1A-20" value="" style="endArrow=classic;html=1;exitX=0.526;exitY=0.825;exitDx=0;exitDy=0;exitPerimeter=0;" edge="1" parent="WIyWlLk6GJQsqaUBKTNV-1" source="1fSLfxTVSvWsyb9XMO1A-13">
          <mxGeometry width="50" height="50" relative="1" as="geometry">
            <mxPoint x="450" y="1080" as="sourcePoint" />
            <mxPoint x="450" y="980" as="targetPoint" />
          </mxGeometry>
        </mxCell>
        <mxCell id="1fSLfxTVSvWsyb9XMO1A-21" value="" style="endArrow=classic;html=1;" edge="1" parent="WIyWlLk6GJQsqaUBKTNV-1">
          <mxGeometry width="50" height="50" relative="1" as="geometry">
            <mxPoint x="450" y="980" as="sourcePoint" />
            <mxPoint x="120" y="980" as="targetPoint" />
          </mxGeometry>
        </mxCell>
        <mxCell id="1fSLfxTVSvWsyb9XMO1A-23" value="" style="endArrow=classic;html=1;" edge="1" parent="WIyWlLk6GJQsqaUBKTNV-1">
          <mxGeometry width="50" height="50" relative="1" as="geometry">
            <mxPoint x="120" y="980" as="sourcePoint" />
            <mxPoint x="120" y="360" as="targetPoint" />
          </mxGeometry>
        </mxCell>
        <mxCell id="1fSLfxTVSvWsyb9XMO1A-24" value="" style="endArrow=classic;html=1;entryX=0;entryY=0.5;entryDx=0;entryDy=0;" edge="1" parent="WIyWlLk6GJQsqaUBKTNV-1" target="1fSLfxTVSvWsyb9XMO1A-7">
          <mxGeometry width="50" height="50" relative="1" as="geometry">
            <mxPoint x="120" y="360" as="sourcePoint" />
            <mxPoint x="440" y="430" as="targetPoint" />
          </mxGeometry>
        </mxCell>
        <mxCell id="1fSLfxTVSvWsyb9XMO1A-26" value="" style="endArrow=classic;html=1;exitX=1;exitY=0.5;exitDx=0;exitDy=0;" edge="1" parent="WIyWlLk6GJQsqaUBKTNV-1" source="1fSLfxTVSvWsyb9XMO1A-7">
          <mxGeometry width="50" height="50" relative="1" as="geometry">
            <mxPoint x="680" y="350" as="sourcePoint" />
            <mxPoint x="740" y="355" as="targetPoint" />
          </mxGeometry>
        </mxCell>
        <mxCell id="1fSLfxTVSvWsyb9XMO1A-27" value="" style="endArrow=classic;html=1;" edge="1" parent="WIyWlLk6GJQsqaUBKTNV-1">
          <mxGeometry width="50" height="50" relative="1" as="geometry">
            <mxPoint x="740" y="360" as="sourcePoint" />
            <mxPoint x="740" y="1010" as="targetPoint" />
          </mxGeometry>
        </mxCell>
        <mxCell id="1fSLfxTVSvWsyb9XMO1A-29" value="" style="endArrow=classic;html=1;" edge="1" parent="WIyWlLk6GJQsqaUBKTNV-1">
          <mxGeometry width="50" height="50" relative="1" as="geometry">
            <mxPoint x="744" y="1010" as="sourcePoint" />
            <mxPoint x="460" y="1010" as="targetPoint" />
          </mxGeometry>
        </mxCell>
        <mxCell id="1fSLfxTVSvWsyb9XMO1A-30" value="" style="endArrow=classic;html=1;exitX=0.526;exitY=0.825;exitDx=0;exitDy=0;exitPerimeter=0;entryX=0.5;entryY=0;entryDx=0;entryDy=0;" edge="1" parent="WIyWlLk6GJQsqaUBKTNV-1" target="1fSLfxTVSvWsyb9XMO1A-31">
          <mxGeometry width="50" height="50" relative="1" as="geometry">
            <mxPoint x="459" y="1010" as="sourcePoint" />
            <mxPoint x="460" y="1064" as="targetPoint" />
          </mxGeometry>
        </mxCell>
        <mxCell id="1fSLfxTVSvWsyb9XMO1A-31" value="System(&quot;cls&quot;);" style="rounded=0;whiteSpace=wrap;html=1;fillColor=#141414;fontColor=#FAFAFA;" vertex="1" parent="WIyWlLk6GJQsqaUBKTNV-1">
          <mxGeometry x="400" y="1030" width="120" height="60" as="geometry" />
        </mxCell>
        <mxCell id="1fSLfxTVSvWsyb9XMO1A-32" value="Fin&lt;br&gt;mostrarinformacion" style="ellipse;whiteSpace=wrap;html=1;fontColor=#FFFFFF;fillColor=#000000;" vertex="1" parent="WIyWlLk6GJQsqaUBKTNV-1">
          <mxGeometry x="390" y="1130" width="120" height="80" as="geometry" />
        </mxCell>
      </root>
    </mxGraphModel>
  </diagram>
</mxfile>
